<svg xmlns="http://www.w3.org/2000/svg" xmlns:xlink="http://www.w3.org/1999/xlink" width="100.0" height="100.0" viewBox="-0.5972280000000001 50.962872 1.139456 1.1401560000000046" preserveAspectRatio="xMinYMin meet"><g transform="matrix(1,0,0,-1,0,103.0659)"><g><path fill-rule="evenodd" fill="#66cc99" stroke="#555555" stroke-width="0.022803120000000093" opacity="0.6" d="M -0.4916,51.4021 L -0.555,51.4542 L -0.2931,51.5021 L -0.2145,51.5743 L 0.0907,52.03 L 0.135,52.0608 L 0.255,52.0606 L 0.404,52.0226 L 0.4412,51.4401 L 0.5,51.3417 L 0.5,51.212 L 0.4618,51.0906 L 0.2141,51.0051 L 0.1721,51.0426 L 0.2018,51.1217 L 0.3054,51.1621 L 0.3338,51.2046 L 0.2136,51.343 L 0.1416,51.3908 L 0.2309,51.4556 L 0.1309,51.4508 L 0.128005489682094,51.45014397528551 L 0.125092924366531,51.44957343020485 L 0.122164827835757,51.44908885914406 L 0.119223737330251,51.448690681991394 L 0.116272201349972,51.44837924377344 L 0.113312777446041,51.44815481435619 L 0.110348030004587,51.44801758821117 L 0.107380528024665,51.44796768424693 L 0.104412842892181,51.448005145706034 L 0.101447546151744,51.448129940127544 L 0.098487207278386,51.44834195937518 L 0.095534391451069,51.448641019731014 L 0.092591657329924,51.44902686205469 L 0.089661554839127,51.449499152007895 L 0.086746622957351,51.45005748034418 L 0.083849387517709,51.45070136326348 L 0.080972359019071,51.451430242831385 L 0.078118030450686,51.452243487462596 L 0.075288875131966,51.45314039246818 L 0.072487344569314,51.454120180666216 L 0.069715866331861,51.45518200305523 L 0.066976841947939,51.45632493954986 L 0.064272644824117,51.457547999778136 L 0.06160561818861,51.45885012393965 L 0.058978073060837,51.46023018372386 L 0.056392286248884,51.46168698328784 L 0.05385049837662,51.46321926029246 L 0.051354911942155,51.464825686996235 L 0.048907689409349,51.46650487140583 L 0.046510951334,51.46825535848223 L 0.04416677452635,51.47007563140159 L 0.041877190251496,51.47196411286956 L 0.039644182469273,51.473919166488 L 0.037469686115117,51.47593909817305 L 0.035355585423414,51.47802215762295 L 0.033303712294787,51.480166539834805 L 0.03131584470872,51.48237038666858 L 0.029393705182915,51.48463178845726 L 0.027538959280705,51.48694878566155 L 0.025753214167815,51.48931937056791 L 0.024038017219727,51.49174148902822 L 0.022394854680863,51.494213042239736 L 0.020825150376722,51.49673188856376 L 0.019330264480119,51.49929584538138 L 0.017911492332576,51.50190269098476 L 0.016570063321881,51.504550166502256 L 0.015307139816814,51.5072359778558 L 0.01412381615993,51.50995779774873 L 0.013021117719297,51.51271326768243 L 0.012,51.5155 L -0.0006,51.5146 L -0.003,51.5102 L -0.1506,51.483 L -0.4005,51.4409 L -0.411,51.4226 L -0.4606,51.3632 L -0.4901,51.3515 L -0.4916,51.4021 z M 0.2309,51.4556 L 0.3629,51.4659 L 0.3503,51.5349 L 0.2309,51.4556 z" /></g></g></svg>